<svg width="40" height="40" viewBox="0 0 40 40" fill="none" xmlns="http://www.w3.org/2000/svg">
<g clip-path="url(#clip0_12_47)">
<path d="M20 0C8.955 0 0 8.95375 0 20C0 31.0462 8.95375 40 20 40C31.0462 40 40 31.0462 40 20C40 8.95375 31.0462 0 20 0ZM20 37.54C10.35 37.54 2.5 29.65 2.5 20C2.5 10.35 10.35 2.5 20 2.5C29.65 2.5 37.5 10.35 37.5 20C37.5 29.65 29.65 37.54 20 37.54ZM21.25 19.4925V7.5C21.25 6.81 20.69 6.25 20 6.25C19.31 6.25 18.75 6.81 18.75 7.5V20C18.75 20.3538 18.8975 20.6712 19.135 20.8988C19.1562 20.9237 19.1725 20.95 19.195 20.9725L25.3813 27.16C25.8687 27.6475 26.66 27.6475 27.1488 27.16C27.6375 26.6725 27.6362 25.88 27.1488 25.3913L21.25 19.4925Z" fill="white"/>
</g>
<defs>
<clipPath id="clip0_12_47">
<rect width="40" height="40" fill="white"/>
</clipPath>
</defs>
</svg>
