<svg width="41" height="41" viewBox="0 0 41 41" fill="none" xmlns="http://www.w3.org/2000/svg">
<path d="M22.2083 5.12496C22.2083 4.18148 21.4435 3.41663 20.5 3.41663C19.5564 3.41663 18.7916 4.18148 18.7916 5.12496V18.7916H5.12496C4.18148 18.7916 3.41663 19.5564 3.41663 20.5C3.41663 21.4435 4.18148 22.2083 5.12496 22.2083H18.7916V35.875C18.7916 36.8185 19.5564 37.5833 20.5 37.5833C21.4435 37.5833 22.2083 36.8185 22.2083 35.875V22.2083H35.875C36.8185 22.2083 37.5833 21.4435 37.5833 20.5C37.5833 19.5564 36.8185 18.7916 35.875 18.7916H22.2083V5.12496Z" fill="#BFBDBA"/>
</svg>
