<svg width="40" height="40" viewBox="0 0 40 40" fill="none" xmlns="http://www.w3.org/2000/svg">
<g clip-path="url(#clip0_12_39)">
<path fill-rule="evenodd" clip-rule="evenodd" d="M20 37.5C10.335 37.5 2.5 29.6625 2.5 20C2.5 10.3375 10.335 2.5 20 2.5C29.665 2.5 37.5 10.3375 37.5 20C37.5 29.6625 29.665 37.5 20 37.5ZM20 0C8.95375 0 0 8.95 0 20C0 31.05 8.95375 40 20 40C31.0462 40 40 31.05 40 20C40 8.95 31.0462 0 20 0ZM27.5 18.75H21.25V12.5C21.25 11.8125 20.6912 11.25 20 11.25C19.3088 11.25 18.75 11.8125 18.75 12.5V18.75H12.5C11.8088 18.75 11.25 19.3125 11.25 20C11.25 20.6875 11.8088 21.25 12.5 21.25H18.75V27.5C18.75 28.1875 19.3088 28.75 20 28.75C20.6912 28.75 21.25 28.1875 21.25 27.5V21.25H27.5C28.1912 21.25 28.75 20.6875 28.75 20C28.75 19.3125 28.1912 18.75 27.5 18.75Z" fill="#BFBDBA"/>
</g>
<defs>
<clipPath id="clip0_12_39">
<rect width="40" height="40" fill="white"/>
</clipPath>
</defs>
</svg>
