<svg width="40" height="40" viewBox="0 0 40 40" fill="none" xmlns="http://www.w3.org/2000/svg">
<g clip-path="url(#clip0_14_216)">
<path d="M22.5 3.33333L23.3268 3.22997C23.2748 2.81295 22.9203 2.5 22.5 2.5V3.33333ZM17.5 3.33333V2.5C17.0797 2.5 16.7252 2.81295 16.6732 3.22997L17.5 3.33333ZM22.9578 6.9959L22.131 7.09925C22.1745 7.44748 22.4315 7.73112 22.7737 7.80865L22.9578 6.9959ZM27.1028 8.71397L26.6583 9.41883C26.9552 9.60603 27.3373 9.58722 27.6145 9.37177L27.1028 8.71397ZM30.0173 6.4471L30.6067 5.85785C30.3095 5.56067 29.8375 5.53128 29.5057 5.78932L30.0173 6.4471ZM33.5528 9.98263L34.2107 10.4942C34.4687 10.1625 34.4393 9.69057 34.1422 9.39338L33.5528 9.98263ZM31.286 12.8972L30.6282 12.3856C30.4128 12.6626 30.394 13.0449 30.5812 13.3417L31.286 12.8972ZM33.0042 17.0422L32.1913 17.2263C32.2688 17.5685 32.5525 17.8255 32.9007 17.869L33.0042 17.0422ZM36.6667 17.5H37.5C37.5 17.0797 37.187 16.7252 36.77 16.6732L36.6667 17.5ZM36.6667 22.5L36.77 23.3268C37.187 23.2748 37.5 22.9203 37.5 22.5H36.6667ZM33.0042 22.9578L32.9007 22.131C32.5525 22.1745 32.2688 22.4315 32.1913 22.7737L33.0042 22.9578ZM31.286 27.1028L30.5812 26.6583C30.394 26.9552 30.4128 27.3375 30.6282 27.6145L31.286 27.1028ZM33.5528 30.0173L34.1422 30.6067C34.4393 30.3095 34.4687 29.8375 34.2107 29.5057L33.5528 30.0173ZM30.0173 33.5528L29.5057 34.2107C29.8375 34.4687 30.3095 34.4393 30.6067 34.1422L30.0173 33.5528ZM27.1028 31.286L27.6145 30.6282C27.3373 30.4128 26.9552 30.394 26.6583 30.5812L27.1028 31.286ZM22.9578 33.0042L22.7737 32.1913C22.4315 32.2688 22.1745 32.5525 22.131 32.9007L22.9578 33.0042ZM22.5 36.6667V37.5C22.9203 37.5 23.2748 37.187 23.3268 36.77L22.5 36.6667ZM17.5 36.6667L16.6732 36.77C16.7252 37.187 17.0797 37.5 17.5 37.5V36.6667ZM17.0422 33.0042L17.869 32.9007C17.8255 32.5525 17.5685 32.2688 17.2263 32.1913L17.0422 33.0042ZM12.8972 31.286L13.3417 30.5812C13.0449 30.394 12.6626 30.4128 12.3856 30.6282L12.8972 31.286ZM9.98265 33.5528L9.3934 34.1422C9.69058 34.4393 10.1625 34.4687 10.4943 34.2107L9.98265 33.5528ZM6.44712 30.0173L5.78933 29.5057C5.5313 29.8375 5.56068 30.3095 5.85787 30.6067L6.44712 30.0173ZM8.71398 27.1028L9.37178 27.6145C9.58723 27.3375 9.60605 26.9552 9.41885 26.6583L8.71398 27.1028ZM6.9959 22.9578L7.80865 22.7737C7.73112 22.4315 7.44748 22.1745 7.09925 22.131L6.9959 22.9578ZM3.33333 22.5H2.5C2.5 22.9203 2.81295 23.2748 3.22997 23.3268L3.33333 22.5ZM3.33333 17.5L3.22997 16.6732C2.81295 16.7252 2.5 17.0797 2.5 17.5H3.33333ZM6.9959 17.0422L7.09925 17.869C7.44748 17.8255 7.73112 17.5685 7.80865 17.2263L6.9959 17.0422ZM8.71398 12.8972L9.41885 13.3417C9.60605 13.0449 9.58723 12.6626 9.37178 12.3856L8.71398 12.8972ZM6.44712 9.98265L5.85787 9.39338C5.56068 9.69057 5.5313 10.1625 5.78932 10.4943L6.44712 9.98265ZM9.98265 6.44712L10.4943 5.78932C10.1625 5.5313 9.69057 5.56068 9.3934 5.85785L9.98265 6.44712ZM12.8972 8.71398L12.3856 9.37177C12.6626 9.58722 13.0449 9.60605 13.3417 9.41883L12.8972 8.71398ZM17.0422 6.9959L17.2263 7.80865C17.5685 7.73112 17.8255 7.44748 17.869 7.09925L17.0422 6.9959ZM22.5 2.5H17.5V4.16667H22.5V2.5ZM23.7847 6.89253L23.3268 3.22997L21.6732 3.4367L22.131 7.09925L23.7847 6.89253ZM27.5473 8.00912C26.2132 7.16765 24.7282 6.54242 23.1418 6.18315L22.7737 7.80865C24.1717 8.12528 25.481 8.67638 26.6583 9.41883L27.5473 8.00912ZM27.6145 9.37177L30.529 7.1049L29.5057 5.78932L26.5912 8.05618L27.6145 9.37177ZM29.4282 7.03637L32.9637 10.5719L34.1422 9.39338L30.6067 5.85785L29.4282 7.03637ZM32.8952 9.47102L30.6282 12.3856L31.9438 13.4088L34.2107 10.4942L32.8952 9.47102ZM33.8168 16.8582C33.4577 15.2719 32.8323 13.7869 31.9908 12.4526L30.5812 13.3417C31.3237 14.519 31.8747 15.8282 32.1913 17.2263L33.8168 16.8582ZM36.77 16.6732L33.1075 16.2153L32.9007 17.869L36.5633 18.3268L36.77 16.6732ZM37.5 22.5V17.5H35.8333V22.5H37.5ZM33.1075 23.7847L36.77 23.3268L36.5633 21.6732L32.9007 22.131L33.1075 23.7847ZM31.9908 27.5473C32.8323 26.2132 33.4577 24.7282 33.8168 23.1418L32.1913 22.7737C31.8747 24.1717 31.3237 25.481 30.5812 26.6583L31.9908 27.5473ZM34.2107 29.5057L31.9438 26.5912L30.6282 27.6145L32.8952 30.529L34.2107 29.5057ZM30.6067 34.1422L34.1422 30.6067L32.9637 29.4282L29.4282 32.9637L30.6067 34.1422ZM26.5912 31.9438L29.5057 34.2107L30.529 32.8952L27.6145 30.6282L26.5912 31.9438ZM23.1418 33.8168C24.7282 33.4577 26.2132 32.8323 27.5473 31.9908L26.6583 30.5812C25.481 31.3237 24.1717 31.8747 22.7737 32.1913L23.1418 33.8168ZM23.3268 36.77L23.7847 33.1075L22.131 32.9007L21.6732 36.5633L23.3268 36.77ZM17.5 37.5H22.5V35.8333H17.5V37.5ZM16.2153 33.1075L16.6732 36.77L18.3268 36.5633L17.869 32.9007L16.2153 33.1075ZM12.4527 31.9908C13.7869 32.8323 15.2719 33.4577 16.8582 33.8168L17.2263 32.1913C15.8283 31.8747 14.519 31.3237 13.3417 30.5812L12.4527 31.9908ZM10.4943 34.2107L13.4088 31.9438L12.3856 30.6282L9.47103 32.8952L10.4943 34.2107ZM5.85787 30.6067L9.3934 34.1422L10.5719 32.9637L7.03638 29.4282L5.85787 30.6067ZM8.0562 26.5912L5.78933 29.5057L7.10492 30.529L9.37178 27.6145L8.0562 26.5912ZM6.18315 23.1418C6.54242 24.7282 7.16765 26.2132 8.00912 27.5473L9.41885 26.6583C8.6764 25.481 8.12528 24.1717 7.80865 22.7737L6.18315 23.1418ZM3.22997 23.3268L6.89253 23.7847L7.09925 22.131L3.4367 21.6732L3.22997 23.3268ZM2.5 17.5V22.5H4.16667V17.5H2.5ZM6.89253 16.2153L3.22997 16.6732L3.4367 18.3268L7.09925 17.869L6.89253 16.2153ZM8.00912 12.4527C7.16765 13.7869 6.54242 15.2719 6.18315 16.8582L7.80865 17.2263C8.12528 15.8283 8.67638 14.519 9.41885 13.3417L8.00912 12.4527ZM5.78932 10.4943L8.05618 13.4088L9.37178 12.3856L7.10492 9.47103L5.78932 10.4943ZM9.3934 5.85785L5.85787 9.39338L7.03637 10.5719L10.5719 7.03637L9.3934 5.85785ZM13.4088 8.05618L10.4943 5.78932L9.47103 7.1049L12.3856 9.37177L13.4088 8.05618ZM16.8582 6.18315C15.2719 6.54242 13.7869 7.16765 12.4527 8.00912L13.3417 9.41883C14.519 8.67638 15.8283 8.12528 17.2263 7.80865L16.8582 6.18315ZM16.6732 3.22997L16.2153 6.89253L17.869 7.09925L18.3268 3.4367L16.6732 3.22997Z" fill="#BFBDBA"/>
<path d="M20 26.6666C23.6819 26.6666 26.6666 23.6819 26.6666 20C26.6666 16.3181 23.6819 13.3333 20 13.3333C16.3181 13.3333 13.3333 16.3181 13.3333 20C13.3333 23.6819 16.3181 26.6666 20 26.6666Z" stroke="#BFBDBA" stroke-width="2" stroke-linejoin="round"/>
</g>
<defs>
<clipPath id="clip0_14_216">
<rect width="40" height="40" fill="white"/>
</clipPath>
</defs>
</svg>
