<svg width="62" height="62" viewBox="0 0 62 62" fill="none" xmlns="http://www.w3.org/2000/svg">
<g clip-path="url(#clip0_12_34)">
<path fill-rule="evenodd" clip-rule="evenodd" d="M9.0799 9.079C7.8678 10.2911 7.8678 12.2536 9.0799 13.4626C10.292 14.6747 12.2543 14.6747 13.4633 13.4626C14.6754 12.2536 14.6754 10.2911 13.4633 9.079C12.2543 7.8669 10.292 7.8669 9.0799 9.079ZM48.5367 48.5359C47.3246 49.7449 47.3246 51.7105 48.5367 52.9195C49.7457 54.1316 51.7111 54.1316 52.9201 52.9195C54.1322 51.7105 54.1322 49.7449 52.9201 48.5359C51.7111 47.3238 49.7457 47.3238 48.5367 48.5359ZM31 55.8C29.2888 55.8 27.9 57.1888 27.9 58.9C27.9 60.6112 29.2888 62 31 62C32.7112 62 34.1 60.6112 34.1 58.9C34.1 57.1888 32.7112 55.8 31 55.8ZM31 6.2C32.7112 6.2 34.1 4.8112 34.1 3.1C34.1 1.3888 32.7112 0 31 0C29.2888 0 27.9 1.3888 27.9 3.1C27.9 4.8112 29.2888 6.2 31 6.2ZM9.0799 48.5359C7.8678 49.7449 7.8678 51.7105 9.0799 52.9195C10.292 54.1316 12.2543 54.1316 13.4633 52.9195C14.6754 51.7105 14.6754 49.7449 13.4633 48.5359C12.2543 47.3238 10.292 47.3238 9.0799 48.5359ZM48.5367 9.079C47.3246 10.2911 47.3246 12.2536 48.5367 13.4626C49.7457 14.6747 51.7111 14.6747 52.9201 13.4626C54.1322 12.2536 54.1322 10.2911 52.9201 9.079C51.7111 7.8669 49.7457 7.8669 48.5367 9.079ZM58.9 27.9C57.1888 27.9 55.8 29.2888 55.8 31C55.8 32.7112 57.1888 34.1 58.9 34.1C60.6112 34.1 62 32.7112 62 31C62 29.2888 60.6112 27.9 58.9 27.9ZM3.1 27.9C1.3888 27.9 0 29.2888 0 31C0 32.7112 1.3888 34.1 3.1 34.1C4.8112 34.1 6.2 32.7112 6.2 31C6.2 29.2888 4.8112 27.9 3.1 27.9ZM43.4 31C43.4 37.8479 37.8479 43.4 31 43.4C24.1521 43.4 18.6 37.8479 18.6 31C18.6 24.1521 24.1521 18.6 31 18.6C37.8479 18.6 43.4 24.1521 43.4 31Z" fill="white"/>
</g>
<defs>
<clipPath id="clip0_12_34">
<rect width="62" height="62" rx="10" fill="white"/>
</clipPath>
</defs>
</svg>
