<svg width="400" height="300" viewBox="0 0 400 300" fill="none" xmlns="http://www.w3.org/2000/svg">
<path d="M135.936 139.568H142.24L147.296 158.384H146.016L151.072 139.568H156.8L161.92 158.384H160.64L165.664 139.568H171.68L164.096 162H158.08L153.152 144.24L154.496 144.272L149.504 162H143.488L135.936 139.568ZM173.801 144.72H179.465V162H173.801V144.72ZM176.649 136.784C177.524 136.784 178.238 137.072 178.793 137.648C179.369 138.203 179.657 138.917 179.657 139.792C179.657 140.645 179.369 141.36 178.793 141.936C178.238 142.491 177.524 142.768 176.649 142.768C175.774 142.768 175.049 142.491 174.473 141.936C173.918 141.36 173.641 140.645 173.641 139.792C173.641 138.917 173.918 138.203 174.473 137.648C175.049 137.072 175.774 136.784 176.649 136.784ZM190.36 144.496C191.832 144.496 193.091 144.859 194.136 145.584C195.182 146.288 195.992 147.301 196.568 148.624C197.144 149.947 197.432 151.504 197.432 153.296C197.432 155.109 197.155 156.688 196.6 158.032C196.046 159.376 195.246 160.411 194.2 161.136C193.176 161.861 191.939 162.224 190.488 162.224C188.867 162.224 187.448 161.851 186.232 161.104C185.016 160.357 184.078 159.312 183.416 157.968C182.755 156.624 182.424 155.056 182.424 153.264C182.424 151.493 182.744 149.957 183.384 148.656C184.046 147.355 184.974 146.341 186.168 145.616C187.384 144.869 188.782 144.496 190.36 144.496ZM191.896 149.04C191.15 149.04 190.488 149.221 189.912 149.584C189.358 149.947 188.92 150.459 188.6 151.12C188.302 151.781 188.152 152.549 188.152 153.424C188.152 154.299 188.302 155.067 188.6 155.728C188.92 156.368 189.358 156.88 189.912 157.264C190.488 157.627 191.15 157.808 191.896 157.808C192.643 157.808 193.294 157.627 193.848 157.264C194.403 156.88 194.83 156.368 195.128 155.728C195.448 155.067 195.608 154.299 195.608 153.424C195.608 152.549 195.448 151.781 195.128 151.12C194.83 150.459 194.403 149.947 193.848 149.584C193.294 149.221 192.643 149.04 191.896 149.04ZM195.608 138.256H201.304V162H195.608V138.256ZM222.377 160.464C222.377 162.085 221.982 163.493 221.193 164.688C220.404 165.883 219.305 166.8 217.897 167.44C216.489 168.101 214.846 168.432 212.969 168.432C211.454 168.432 210.025 168.219 208.681 167.792C207.358 167.365 206.206 166.821 205.225 166.16L207.209 162.32C207.998 162.853 208.852 163.269 209.769 163.568C210.686 163.867 211.614 164.016 212.553 164.016C213.428 164.016 214.174 163.877 214.793 163.6C215.412 163.323 215.881 162.928 216.201 162.416C216.542 161.904 216.713 161.296 216.713 160.592V144.72H222.377V160.464ZM211.657 144.528C213.086 144.507 214.302 144.837 215.305 145.52C216.329 146.181 217.097 147.131 217.609 148.368C218.142 149.584 218.409 151.035 218.409 152.72C218.409 154.427 218.153 155.909 217.641 157.168C217.129 158.405 216.372 159.365 215.369 160.048C214.388 160.709 213.193 161.04 211.785 161.04C210.356 161.04 209.076 160.699 207.945 160.016C206.836 159.312 205.961 158.341 205.321 157.104C204.702 155.845 204.393 154.373 204.393 152.688C204.393 151.045 204.692 149.616 205.289 148.4C205.908 147.184 206.761 146.235 207.849 145.552C208.958 144.869 210.228 144.528 211.657 144.528ZM213.225 148.752C212.521 148.752 211.902 148.923 211.369 149.264C210.857 149.605 210.452 150.085 210.153 150.704C209.854 151.323 209.705 152.037 209.705 152.848C209.705 153.659 209.854 154.373 210.153 154.992C210.452 155.611 210.857 156.091 211.369 156.432C211.902 156.773 212.521 156.944 213.225 156.944C213.908 156.944 214.505 156.773 215.017 156.432C215.55 156.091 215.966 155.611 216.265 154.992C216.564 154.373 216.713 153.659 216.713 152.848C216.713 152.037 216.564 151.323 216.265 150.704C215.966 150.085 215.55 149.605 215.017 149.264C214.505 148.923 213.908 148.752 213.225 148.752ZM237.399 151.856C237.42 151.152 237.292 150.555 237.015 150.064C236.759 149.552 236.386 149.157 235.895 148.88C235.404 148.603 234.839 148.464 234.199 148.464C233.452 148.464 232.812 148.667 232.279 149.072C231.767 149.456 231.362 150 231.063 150.704C230.786 151.387 230.647 152.187 230.647 153.104C230.647 154.107 230.818 154.971 231.159 155.696C231.5 156.421 231.98 156.987 232.599 157.392C233.239 157.776 233.975 157.968 234.807 157.968C236.343 157.968 237.698 157.381 238.871 156.208L241.847 159.152C240.972 160.112 239.895 160.859 238.615 161.392C237.356 161.925 235.916 162.192 234.295 162.192C232.418 162.192 230.786 161.829 229.399 161.104C228.034 160.379 226.978 159.355 226.231 158.032C225.506 156.709 225.143 155.173 225.143 153.424C225.143 151.632 225.516 150.075 226.263 148.752C227.01 147.408 228.066 146.373 229.431 145.648C230.796 144.901 232.375 144.528 234.167 144.528C236.194 144.528 237.868 144.955 239.191 145.808C240.535 146.64 241.516 147.835 242.135 149.392C242.775 150.949 243.031 152.773 242.903 154.864H229.847V151.856H237.399ZM252.296 155.856C252.296 156.517 252.435 156.997 252.712 157.296C252.99 157.595 253.374 157.733 253.864 157.712C254.163 157.712 254.494 157.659 254.856 157.552C255.219 157.445 255.603 157.307 256.008 157.136L257.096 161.072C256.478 161.456 255.752 161.755 254.92 161.968C254.11 162.16 253.278 162.256 252.424 162.256C251.315 162.256 250.323 162.053 249.448 161.648C248.574 161.221 247.88 160.603 247.368 159.792C246.878 158.96 246.632 157.947 246.632 156.752V140.752H252.296V155.856ZM244.232 145.52H256.776V149.232H244.232V145.52ZM259.801 139.568H265.657V148.752H274.713V139.568H280.569V162H274.713V153.36H265.657V162H259.801V139.568ZM290.11 154.032C290.11 155.013 290.355 155.792 290.846 156.368C291.358 156.944 292.041 157.232 292.894 157.232C293.918 157.211 294.707 156.827 295.262 156.08C295.838 155.333 296.126 154.395 296.126 153.264H297.47C297.47 155.205 297.193 156.848 296.638 158.192C296.083 159.515 295.294 160.517 294.27 161.2C293.246 161.883 292.019 162.224 290.59 162.224C289.353 162.224 288.265 161.957 287.326 161.424C286.409 160.869 285.694 160.101 285.182 159.12C284.67 158.139 284.414 156.976 284.414 155.632V144.72H290.11V154.032ZM296.126 144.72H301.822V162H296.126V144.72ZM317.12 144.528C318.741 144.528 320.149 144.901 321.344 145.648C322.56 146.373 323.499 147.408 324.16 148.752C324.843 150.075 325.184 151.643 325.184 153.456C325.184 155.184 324.853 156.709 324.192 158.032C323.552 159.355 322.635 160.379 321.44 161.104C320.267 161.829 318.869 162.192 317.248 162.192C315.797 162.192 314.539 161.84 313.472 161.136C312.427 160.411 311.616 159.397 311.04 158.096C310.485 156.773 310.208 155.216 310.208 153.424C310.208 151.589 310.485 150.011 311.04 148.688C311.595 147.344 312.384 146.32 313.408 145.616C314.453 144.891 315.691 144.528 317.12 144.528ZM315.712 148.912C315.008 148.912 314.368 149.104 313.792 149.488C313.237 149.851 312.8 150.363 312.48 151.024C312.181 151.664 312.032 152.421 312.032 153.296C312.032 154.149 312.181 154.917 312.48 155.6C312.8 156.261 313.237 156.773 313.792 157.136C314.368 157.499 315.008 157.68 315.712 157.68C316.459 157.68 317.109 157.499 317.664 157.136C318.24 156.752 318.677 156.229 318.976 155.568C319.296 154.907 319.456 154.149 319.456 153.296C319.456 152.443 319.296 151.685 318.976 151.024C318.677 150.363 318.24 149.851 317.664 149.488C317.109 149.104 316.459 148.912 315.712 148.912ZM306.336 138.256H312.032V162H306.336V138.256Z" fill="#BFBDBA"/>
<g clip-path="url(#clip0_10_24)">
<path fill-rule="evenodd" clip-rule="evenodd" d="M80.0296 133.029C79.0912 133.967 79.0912 135.487 80.0296 136.423C80.968 137.361 82.4872 137.361 83.4232 136.423C84.3616 135.487 84.3616 133.967 83.4232 133.029C82.4872 132.091 80.968 132.091 80.0296 133.029ZM110.577 163.576C109.638 164.512 109.638 166.034 110.577 166.97C111.513 167.908 113.034 167.908 113.97 166.97C114.909 166.034 114.909 164.512 113.97 163.576C113.034 162.638 111.513 162.638 110.577 163.576ZM97 169.2C95.6752 169.2 94.6 170.275 94.6 171.6C94.6 172.925 95.6752 174 97 174C98.3248 174 99.4 172.925 99.4 171.6C99.4 170.275 98.3248 169.2 97 169.2ZM97 130.8C98.3248 130.8 99.4 129.725 99.4 128.4C99.4 127.075 98.3248 126 97 126C95.6752 126 94.6 127.075 94.6 128.4C94.6 129.725 95.6752 130.8 97 130.8ZM80.0296 163.576C79.0912 164.512 79.0912 166.034 80.0296 166.97C80.968 167.908 82.4872 167.908 83.4232 166.97C84.3616 166.034 84.3616 164.512 83.4232 163.576C82.4872 162.638 80.968 162.638 80.0296 163.576ZM110.577 133.029C109.638 133.967 109.638 135.487 110.577 136.423C111.513 137.361 113.034 137.361 113.97 136.423C114.909 135.487 114.909 133.967 113.97 133.029C113.034 132.091 111.513 132.091 110.577 133.029ZM118.6 147.6C117.275 147.6 116.2 148.675 116.2 150C116.2 151.325 117.275 152.4 118.6 152.4C119.925 152.4 121 151.325 121 150C121 148.675 119.925 147.6 118.6 147.6ZM75.4 147.6C74.0752 147.6 73 148.675 73 150C73 151.325 74.0752 152.4 75.4 152.4C76.7248 152.4 77.8 151.325 77.8 150C77.8 148.675 76.7248 147.6 75.4 147.6ZM106.6 150C106.6 155.302 102.302 159.6 97 159.6C91.6984 159.6 87.4 155.302 87.4 150C87.4 144.698 91.6984 140.4 97 140.4C102.302 140.4 106.6 144.698 106.6 150Z" fill="#BFBDBA"/>
</g>
<defs>
<clipPath id="clip0_10_24">
<rect width="48" height="48" fill="white" transform="translate(73 126)"/>
</clipPath>
</defs>
</svg>
